# xmcd
#
# Track frame offsets: 
#        150
#        26884
#        49048
#        91981
#        134154
#
# Disc length: 2274 seconds
#
# Revision: 1
# Processed by: cddbd v1.5.2PL0 Copyright (c) Steve Scherf et al.
# Submitted via: ExactAudioCopy v1.0b3
#
DISCID=4308e005
DTITLE=Kenny Burrell - God Bless The Child
DYEAR=1971
DGENRE=Jazz
TTITLE0=Be Yourself
TTITLE1=Love Is The Answer
TTITLE2=Do What You Gotta Do
TTITLE3=A Child Is Born
TTITLE4=God Bless The Child
EXTD=
EXTT0=
EXTT1=
EXTT2=
EXTT3=
EXTT4=
PLAYORDER=
